<svg width="135" height="37" viewBox="0 0 135 37" fill="none" xmlns="http://www.w3.org/2000/svg">
<rect x="0.851929" y="0.137207" width="133.254" height="36.4899" rx="2.78428" fill="#4CAF4F"/>
<path d="M24.4512 21.8821V13.7824H27.3383C27.9658 13.7824 28.4865 13.8905 28.9005 14.1067C29.3171 14.3229 29.6282 14.6221 29.8338 15.0044C30.0395 15.3841 30.1423 15.8231 30.1423 16.3214C30.1423 16.8171 30.0382 17.2535 29.8299 17.6305C29.6242 18.0049 29.3131 18.2963 28.8965 18.5046C28.4826 18.7129 27.9618 18.817 27.3343 18.817H25.1472V17.765H27.2236C27.6191 17.765 27.9407 17.7083 28.1886 17.5949C28.4391 17.4815 28.6223 17.3168 28.7383 17.1006C28.8543 16.8844 28.9123 16.6246 28.9123 16.3214C28.9123 16.0156 28.853 15.7506 28.7344 15.5265C28.6183 15.3024 28.4351 15.131 28.1846 15.0123C27.9368 14.8911 27.6112 14.8304 27.2078 14.8304H25.6732V21.8821H24.4512ZM28.4496 18.2277L30.4508 21.8821H29.0587L27.097 18.2277H28.4496ZM34.0765 22.0047C33.478 22.0047 32.9625 21.8768 32.5301 21.6211C32.1003 21.3627 31.7681 21.0001 31.5335 20.5334C31.3014 20.0641 31.1854 19.5144 31.1854 18.8842C31.1854 18.262 31.3014 17.7136 31.5335 17.239C31.7681 16.7644 32.0951 16.3939 32.5143 16.1276C32.9362 15.8613 33.4292 15.7282 33.9934 15.7282C34.3362 15.7282 34.6684 15.7849 34.9901 15.8983C35.3118 16.0116 35.6005 16.1896 35.8562 16.4322C36.112 16.6747 36.3137 16.9898 36.4613 17.3774C36.609 17.7624 36.6828 18.2304 36.6828 18.7814V19.2006H31.8538V18.3147H35.524C35.524 18.0036 35.4607 17.7281 35.3342 17.4881C35.2076 17.2456 35.0296 17.0544 34.8002 16.9147C34.5735 16.7749 34.3072 16.7051 34.0014 16.7051C33.6691 16.7051 33.3791 16.7868 33.1313 16.9503C32.8861 17.1111 32.6962 17.322 32.5618 17.5831C32.4299 17.8414 32.364 18.1223 32.364 18.4255V19.1176C32.364 19.5236 32.4352 19.869 32.5776 20.1538C32.7226 20.4385 32.9243 20.656 33.1827 20.8063C33.4411 20.954 33.743 21.0278 34.0884 21.0278C34.3125 21.0278 34.5168 20.9962 34.7014 20.9329C34.8859 20.867 35.0455 20.7694 35.1799 20.6402C35.3144 20.511 35.4172 20.3515 35.4884 20.1617L36.6077 20.3634C36.518 20.693 36.3572 20.9817 36.1252 21.2295C35.8958 21.4747 35.6071 21.6659 35.259 21.803C34.9136 21.9374 34.5194 22.0047 34.0765 22.0047ZM40.5418 24.2867C40.0593 24.2867 39.6441 24.2234 39.296 24.0968C38.9506 23.9703 38.6685 23.8029 38.4497 23.5946C38.2308 23.3863 38.0674 23.1582 37.9593 22.9104L38.9757 22.4911C39.0469 22.6072 39.1418 22.7298 39.2604 22.859C39.3817 22.9908 39.5452 23.1028 39.7508 23.1951C39.9591 23.2874 40.2268 23.3335 40.5537 23.3335C41.0019 23.3335 41.3724 23.2241 41.665 23.0053C41.9577 22.7891 42.104 22.4437 42.104 21.9691V20.7747H42.0289C41.9577 20.9039 41.8549 21.0476 41.7204 21.2058C41.5886 21.364 41.4066 21.5011 41.1746 21.6171C40.9426 21.7331 40.6407 21.7911 40.2689 21.7911C39.7891 21.7911 39.3567 21.6791 38.9717 21.4549C38.5894 21.2282 38.2862 20.8947 38.0621 20.4543C37.8406 20.0114 37.7299 19.4669 37.7299 18.821C37.7299 18.175 37.8393 17.6213 38.0581 17.1599C38.2796 16.6985 38.5828 16.3452 38.9678 16.1C39.3527 15.8521 39.7891 15.7282 40.2769 15.7282C40.6539 15.7282 40.9584 15.7915 41.1904 15.918C41.4225 16.042 41.6031 16.187 41.7323 16.3531C41.8641 16.5192 41.9656 16.6655 42.0368 16.7921H42.1238V15.8073H43.2826V22.0165C43.2826 22.5386 43.1613 22.9671 42.9188 23.3019C42.6762 23.6368 42.3479 23.8846 41.934 24.0454C41.5227 24.2063 41.0586 24.2867 40.5418 24.2867ZM40.53 20.8103C40.8701 20.8103 41.1575 20.7312 41.3921 20.573C41.6294 20.4122 41.8087 20.1828 41.93 19.8848C42.0539 19.5843 42.1159 19.2244 42.1159 18.8051C42.1159 18.3965 42.0553 18.0366 41.934 17.7254C41.8127 17.4143 41.6347 17.1717 41.4001 16.9977C41.1654 16.8211 40.8754 16.7327 40.53 16.7327C40.174 16.7327 39.8774 16.825 39.6401 17.0096C39.4028 17.1915 39.2235 17.4394 39.1022 17.7531C38.9836 18.0669 38.9243 18.4176 38.9243 18.8051C38.9243 19.2033 38.9849 19.5526 39.1062 19.8532C39.2275 20.1538 39.4068 20.3884 39.6441 20.5572C39.884 20.7259 40.1793 20.8103 40.53 20.8103ZM44.8685 21.8821V15.8073H46.0511V21.8821H44.8685ZM45.4657 14.87C45.2601 14.87 45.0834 14.8014 44.9358 14.6643C44.7908 14.5246 44.7183 14.3585 44.7183 14.166C44.7183 13.9709 44.7908 13.8048 44.9358 13.6677C45.0834 13.5279 45.2601 13.4581 45.4657 13.4581C45.6714 13.4581 45.8467 13.5279 45.9917 13.6677C46.1394 13.8048 46.2132 13.9709 46.2132 14.166C46.2132 14.3585 46.1394 14.5246 45.9917 14.6643C45.8467 14.8014 45.6714 14.87 45.4657 14.87ZM52.1941 17.2904L51.1223 17.4802C51.0775 17.3431 51.0063 17.2126 50.9087 17.0887C50.8138 16.9648 50.6846 16.8633 50.5211 16.7842C50.3577 16.7051 50.1533 16.6655 49.9081 16.6655C49.5733 16.6655 49.2938 16.7407 49.0697 16.8909C48.8456 17.0386 48.7335 17.2298 48.7335 17.4644C48.7335 17.6674 48.8086 17.8309 48.9589 17.9548C49.1092 18.0787 49.3518 18.1803 49.6866 18.2594L50.6517 18.4808C51.2106 18.61 51.6272 18.8091 51.9014 19.078C52.1756 19.347 52.3127 19.6963 52.3127 20.1261C52.3127 20.4899 52.2073 20.8142 51.9963 21.099C51.788 21.3811 51.4967 21.6026 51.1223 21.7634C50.7505 21.9243 50.3194 22.0047 49.829 22.0047C49.1488 22.0047 48.5938 21.8597 48.164 21.5696C47.7342 21.277 47.4706 20.8617 47.373 20.3238L48.516 20.1498C48.5872 20.4478 48.7335 20.6732 48.955 20.8261C49.1765 20.9764 49.4652 21.0515 49.8211 21.0515C50.2087 21.0515 50.5185 20.9711 50.7505 20.8103C50.9825 20.6468 51.0986 20.4478 51.0986 20.2131C51.0986 20.0233 51.0274 19.8637 50.885 19.7345C50.7453 19.6054 50.5304 19.5078 50.2403 19.4419L49.2121 19.2165C48.6452 19.0873 48.226 18.8816 47.9544 18.5995C47.6854 18.3174 47.551 17.9601 47.551 17.5277C47.551 17.1691 47.6512 16.8554 47.8516 16.5864C48.0519 16.3175 48.3288 16.1079 48.6821 15.9576C49.0354 15.8047 49.4401 15.7282 49.8963 15.7282C50.5528 15.7282 51.0696 15.8706 51.4466 16.1553C51.8236 16.4374 52.0728 16.8158 52.1941 17.2904ZM56.4486 15.8073V16.7565H53.1304V15.8073H56.4486ZM54.0203 14.3519H55.2028V20.0984C55.2028 20.3278 55.2371 20.5005 55.3056 20.6165C55.3742 20.7299 55.4625 20.8077 55.5706 20.8498C55.6813 20.8894 55.8013 20.9092 55.9305 20.9092C56.0254 20.9092 56.1085 20.9026 56.1797 20.8894C56.2509 20.8762 56.3062 20.8657 56.3458 20.8578L56.5593 21.8346C56.4908 21.861 56.3932 21.8874 56.2667 21.9137C56.1401 21.9427 55.9819 21.9585 55.7921 21.9612C55.481 21.9665 55.1909 21.9111 54.922 21.7951C54.6531 21.6791 54.4355 21.4998 54.2694 21.2572C54.1033 21.0146 54.0203 20.7101 54.0203 20.3436V14.3519ZM60.3096 22.0047C59.7111 22.0047 59.1956 21.8768 58.7632 21.6211C58.3335 21.3627 58.0012 21.0001 57.7666 20.5334C57.5346 20.0641 57.4186 19.5144 57.4186 18.8842C57.4186 18.262 57.5346 17.7136 57.7666 17.239C58.0012 16.7644 58.3282 16.3939 58.7474 16.1276C59.1693 15.8613 59.6623 15.7282 60.2266 15.7282C60.5693 15.7282 60.9015 15.7849 61.2232 15.8983C61.5449 16.0116 61.8336 16.1896 62.0893 16.4322C62.3451 16.6747 62.5468 16.9898 62.6944 17.3774C62.8421 17.7624 62.9159 18.2304 62.9159 18.7814V19.2006H58.0869V18.3147H61.7571C61.7571 18.0036 61.6938 17.7281 61.5673 17.4881C61.4407 17.2456 61.2628 17.0544 61.0334 16.9147C60.8066 16.7749 60.5403 16.7051 60.2345 16.7051C59.9023 16.7051 59.6122 16.7868 59.3644 16.9503C59.1192 17.1111 58.9293 17.322 58.7949 17.5831C58.663 17.8414 58.5971 18.1223 58.5971 18.4255V19.1176C58.5971 19.5236 58.6683 19.869 58.8107 20.1538C58.9557 20.4385 59.1574 20.656 59.4158 20.8063C59.6742 20.954 59.9761 21.0278 60.3215 21.0278C60.5456 21.0278 60.7499 20.9962 60.9345 20.9329C61.1191 20.867 61.2786 20.7694 61.413 20.6402C61.5475 20.511 61.6503 20.3515 61.7215 20.1617L62.8408 20.3634C62.7511 20.693 62.5903 20.9817 62.3583 21.2295C62.1289 21.4747 61.8402 21.6659 61.4921 21.803C61.1467 21.9374 60.7526 22.0047 60.3096 22.0047ZM64.228 21.8821V15.8073H65.3709V16.7723H65.4342C65.545 16.4454 65.7401 16.1883 66.0196 16.0011C66.3017 15.8112 66.6207 15.7163 66.9767 15.7163C67.0505 15.7163 67.1375 15.719 67.2377 15.7242C67.3405 15.7295 67.4209 15.7361 67.4789 15.744V16.8751C67.4315 16.8619 67.3471 16.8474 67.2258 16.8316C67.1045 16.8132 66.9832 16.8039 66.862 16.8039C66.5825 16.8039 66.3333 16.8633 66.1145 16.9819C65.8983 17.0979 65.7269 17.2601 65.6003 17.4684C65.4738 17.674 65.4105 17.9087 65.4105 18.1723V21.8821H64.228ZM78.0821 13.7824V21.8821H76.9589L72.8418 15.9418H72.7667V21.8821H71.5446V13.7824H72.6757L76.7968 19.7306H76.8719V13.7824H78.0821ZM82.3287 22.0047C81.7592 22.0047 81.2622 21.8742 80.8377 21.6131C80.4132 21.3521 80.0837 20.9869 79.849 20.5176C79.6143 20.0483 79.497 19.4999 79.497 18.8724C79.497 18.2422 79.6143 17.6912 79.849 17.2192C80.0837 16.7472 80.4132 16.3808 80.8377 16.1197C81.2622 15.8587 81.7592 15.7282 82.3287 15.7282C82.8983 15.7282 83.3953 15.8587 83.8198 16.1197C84.2443 16.3808 84.5738 16.7472 84.8085 17.2192C85.0432 17.6912 85.1605 18.2422 85.1605 18.8724C85.1605 19.4999 85.0432 20.0483 84.8085 20.5176C84.5738 20.9869 84.2443 21.3521 83.8198 21.6131C83.3953 21.8742 82.8983 22.0047 82.3287 22.0047ZM82.3327 21.012C82.7018 21.012 83.0077 20.9144 83.2502 20.7193C83.4928 20.5242 83.6721 20.2645 83.7881 19.9402C83.9068 19.6159 83.9661 19.2586 83.9661 18.8684C83.9661 18.4808 83.9068 18.1249 83.7881 17.8006C83.6721 17.4736 83.4928 17.2113 83.2502 17.0135C83.0077 16.8158 82.7018 16.7169 82.3327 16.7169C81.9609 16.7169 81.6525 16.8158 81.4072 17.0135C81.1647 17.2113 80.9841 17.4736 80.8654 17.8006C80.7494 18.1249 80.6914 18.4808 80.6914 18.8684C80.6914 19.2586 80.7494 19.6159 80.8654 19.9402C80.9841 20.2645 81.1647 20.5242 81.4072 20.7193C81.6525 20.9144 81.9609 21.012 82.3327 21.012ZM87.6125 21.8821L85.8249 15.8073H87.047L88.2374 20.2685H88.2967L89.4911 15.8073H90.7132L91.8997 20.2487H91.959L93.1416 15.8073H94.3636L92.5799 21.8821H91.3737L90.1398 17.4961H90.0488L88.8148 21.8821H87.6125Z" fill="white"/>
<path d="M108.526 20.4707L110.245 18.7516C110.449 18.5477 110.449 18.2172 110.245 18.0133L108.526 16.2942M110.092 18.3824L102.435 18.3824" stroke="white" stroke-width="0.765676" stroke-linecap="round"/>
</svg>
