<svg width="12" height="13" viewBox="0 0 12 13" fill="none" xmlns="http://www.w3.org/2000/svg">
<path fill-rule="evenodd" clip-rule="evenodd" d="M5.98912 0.834518C4.37595 0.834518 4.1735 0.841572 3.53992 0.870405C2.90757 0.899362 2.47594 0.999473 2.09826 1.14636C1.7076 1.29807 1.3762 1.50102 1.04604 1.8313C0.71564 2.16146 0.512695 2.49285 0.360486 2.8834C0.213227 3.2612 0.112992 3.69295 0.08453 4.32505C0.0561919 4.95863 0.0487671 5.16121 0.0487671 6.77437C0.0487671 8.38754 0.0559444 8.58937 0.0846537 9.22295C0.113734 9.8553 0.213846 10.2869 0.360609 10.6646C0.512447 11.0553 0.715392 11.3867 1.04567 11.7168C1.37571 12.0472 1.7071 12.2507 2.09752 12.4024C2.47545 12.5493 2.9072 12.6494 3.53942 12.6783C4.17301 12.7072 4.37533 12.7142 5.98838 12.7142C7.60166 12.7142 7.8035 12.7072 8.43708 12.6783C9.06943 12.6494 9.50155 12.5493 9.87947 12.4024C10.27 12.2507 10.6009 12.0472 10.931 11.7168C11.2614 11.3867 11.4643 11.0553 11.6165 10.6647C11.7625 10.2869 11.8628 9.85518 11.8925 9.22308C11.9209 8.58949 11.9284 8.38754 11.9284 6.77437C11.9284 5.16121 11.9209 4.95876 11.8925 4.32517C11.8628 3.69283 11.7625 3.2612 11.6165 2.88352C11.4643 2.49285 11.2614 2.16146 10.931 1.8313C10.6005 1.5009 10.2701 1.29795 9.8791 1.14636C9.50044 0.999473 9.06856 0.899362 8.43621 0.870405C7.80263 0.841572 7.60092 0.834518 5.98726 0.834518H5.98912ZM5.45624 1.90491C5.61439 1.90467 5.79085 1.90491 5.98909 1.90491C7.57503 1.90491 7.763 1.91061 8.38929 1.93907C8.96842 1.96555 9.28274 2.06232 9.49212 2.14362C9.76931 2.25128 9.96694 2.37998 10.1747 2.58787C10.3826 2.79577 10.5113 2.99376 10.6192 3.27096C10.7005 3.48009 10.7974 3.79441 10.8238 4.37354C10.8522 4.9997 10.8584 5.1878 10.8584 6.773C10.8584 8.35819 10.8522 8.54629 10.8238 9.17245C10.7973 9.75159 10.7005 10.0659 10.6192 10.275C10.5115 10.5522 10.3826 10.7496 10.1747 10.9574C9.96681 11.1653 9.76944 11.294 9.49212 11.4016C9.28299 11.4833 8.96842 11.5798 8.38929 11.6063C7.76313 11.6348 7.57503 11.641 5.98909 11.641C4.40303 11.641 4.21505 11.6348 3.5889 11.6063C3.00976 11.5796 2.69544 11.4828 2.48594 11.4015C2.20875 11.2938 2.01075 11.1651 1.80286 10.9573C1.59496 10.7494 1.46626 10.5519 1.35836 10.2745C1.27705 10.0654 1.18016 9.75109 1.1538 9.17195C1.12534 8.5458 1.11965 8.3577 1.11965 6.77151C1.11965 5.18532 1.12534 4.99822 1.1538 4.37206C1.18028 3.79292 1.27705 3.4786 1.35836 3.26922C1.46602 2.99203 1.59496 2.79404 1.80286 2.58614C2.01075 2.37825 2.20875 2.24955 2.48594 2.14164C2.69532 2.05997 3.00976 1.96345 3.5889 1.93684C4.13685 1.91209 4.3492 1.90467 5.45624 1.90343V1.90491ZM9.15974 2.89118C8.76622 2.89118 8.44696 3.21007 8.44696 3.60371C8.44696 3.99723 8.76622 4.3165 9.15974 4.3165C9.55326 4.3165 9.87252 3.99723 9.87252 3.60371C9.87252 3.2102 9.55326 2.89118 9.15974 2.89118ZM5.98913 3.72399C4.30456 3.72399 2.93876 5.08979 2.93876 6.77436C2.93876 8.45892 4.30456 9.8241 5.98913 9.8241C7.67369 9.8241 9.03899 8.45892 9.03899 6.77436C9.03899 5.08979 7.67369 3.72399 5.98913 3.72399ZM5.9891 4.79441C7.08253 4.79441 7.96906 5.6808 7.96906 6.77436C7.96906 7.86779 7.08253 8.75431 5.9891 8.75431C4.89555 8.75431 4.00915 7.86779 4.00915 6.77436C4.00915 5.6808 4.89555 4.79441 5.9891 4.79441Z" fill="white"/>
</svg>
