<svg width="13" height="13" viewBox="0 0 13 13" fill="none" xmlns="http://www.w3.org/2000/svg">
<path fill-rule="evenodd" clip-rule="evenodd" d="M12.3397 6.76608C12.3397 7.16777 12.2988 7.56891 12.2185 7.95993C12.1402 8.34166 12.0242 8.71643 11.8722 9.07469C11.7237 9.42661 11.5395 9.76574 11.3243 10.082C11.1123 10.3963 10.8681 10.6911 10.5998 10.9599C10.3309 11.2275 10.0351 11.471 9.72095 11.6839C9.40364 11.8977 9.06402 12.0816 8.71189 12.2307C8.35312 12.3819 7.97748 12.4978 7.59608 12.576C7.20455 12.6565 6.80195 12.6976 6.39967 12.6976C5.99709 12.6976 5.59451 12.6565 5.20353 12.576C4.82155 12.4978 4.44594 12.3819 4.08745 12.2307C3.73534 12.0816 3.39539 11.8977 3.07809 11.6839C2.76398 11.471 2.46813 11.2275 2.19984 10.9599C1.93127 10.6911 1.68704 10.3963 1.47473 10.082C1.26068 9.76574 1.07619 9.42658 0.927122 9.07469C0.775121 8.71643 0.65883 8.34164 0.580225 7.95993C0.50076 7.56891 0.460144 7.16777 0.460144 6.76608C0.460144 6.36408 0.500737 5.96208 0.580248 5.57192C0.658853 5.19019 0.775144 4.81485 0.927146 4.45717C1.07622 4.10499 1.2607 3.76556 1.47475 3.44927C1.68706 3.13475 1.93129 2.84047 2.19986 2.5714C2.46816 2.30377 2.764 2.0608 3.07812 1.84822C3.39542 1.63359 3.73536 1.4497 4.08747 1.30024C4.44597 1.14874 4.82155 1.03262 5.20356 0.955006C5.59454 0.875076 5.99711 0.834518 6.39969 0.834518C6.80197 0.834518 7.20455 0.875076 7.59611 0.955006C7.97751 1.03264 8.35312 1.14876 8.71192 1.30024C9.06402 1.44968 9.40367 1.63359 9.72097 1.84822C10.0351 2.0608 10.331 2.30377 10.5998 2.5714C10.8681 2.84047 11.1123 3.13475 11.3243 3.44927C11.5395 3.76556 11.7237 4.10501 11.8722 4.45717C12.0242 4.81485 12.1402 5.19019 12.2185 5.57192C12.2988 5.96208 12.3397 6.36408 12.3397 6.76608ZM4.23534 2.18446C2.82078 2.85149 1.76502 4.15306 1.43581 5.72168C1.56954 5.72284 3.68338 5.74949 6.11887 5.10331C5.24092 3.5457 4.30292 2.27456 4.23534 2.18446ZM6.53914 5.88331C3.92731 6.66411 1.42103 6.60793 1.33112 6.60447C1.32966 6.65891 1.32705 6.71161 1.32705 6.76607C1.32705 8.06734 1.81868 9.25365 2.62674 10.1506C2.625 10.148 4.01317 7.68881 6.75059 6.80489C6.81671 6.78288 6.88402 6.76317 6.95072 6.74406C6.82341 6.45619 6.68445 6.16772 6.53914 5.88331ZM9.74966 2.96443C8.8566 2.17808 7.68397 1.7011 6.39965 1.7011C5.9875 1.7011 5.58752 1.75092 5.20438 1.84301C5.28036 1.94498 6.23317 3.20715 7.10068 4.79776C9.01469 4.08123 9.73718 2.98296 9.74966 2.96443ZM7.29649 7.5834C7.28519 7.58713 7.27389 7.59036 7.26285 7.5944C4.26994 8.63627 3.29256 10.7359 3.28198 10.7589C4.14314 11.4276 5.22327 11.831 6.39969 11.831C7.10215 11.831 7.77128 11.6882 8.38008 11.4296C8.30496 10.9871 8.01028 9.43585 7.29649 7.5834ZM9.23425 10.9668C10.3732 10.1993 11.1822 8.98057 11.4078 7.56889C11.3034 7.53529 9.88423 7.08666 8.24692 7.34878C8.91228 9.1746 9.18262 10.6615 9.23425 10.9668ZM7.49112 5.55253C7.60885 5.79409 7.72287 6.03994 7.82814 6.28702C7.86557 6.37566 7.90211 6.46255 7.93778 6.54942C9.68036 6.33046 11.3971 6.69886 11.4705 6.71391C11.4589 5.51314 11.0288 4.4111 10.317 3.54832C10.3075 3.5619 9.49388 4.73577 7.49112 5.55253Z" fill="white"/>
</svg>
