<svg width="12" height="10" viewBox="0 0 12 10" fill="none" xmlns="http://www.w3.org/2000/svg">
<path fill-rule="evenodd" clip-rule="evenodd" d="M5.47768 2.68959L5.50105 3.07496L5.11154 3.02777C3.69373 2.84688 2.45509 2.23344 1.40341 1.20317L0.889261 0.691962L0.756828 1.06947C0.476381 1.91099 0.655555 2.7997 1.23982 3.39741C1.55143 3.72773 1.48131 3.77492 0.943792 3.5783C0.756828 3.51538 0.593234 3.46819 0.577653 3.49179C0.523122 3.54684 0.710087 4.26253 0.8581 4.54565C1.06064 4.93889 1.47352 5.32426 1.92535 5.55233L2.30707 5.73322L1.85524 5.74109C1.41899 5.74109 1.40341 5.74895 1.45015 5.91411C1.60596 6.42531 2.22138 6.96798 2.90692 7.20392L3.38991 7.36907L2.96924 7.62074C2.34602 7.98252 1.61375 8.187 0.88147 8.20273C0.530912 8.21059 0.242676 8.24205 0.242676 8.26565C0.242676 8.34429 1.19308 8.78472 1.74618 8.95774C3.40549 9.46894 5.3764 9.24873 6.85654 8.37575C7.90821 7.75444 8.95989 6.51969 9.45067 5.32426C9.71553 4.68722 9.9804 3.52325 9.9804 2.96485C9.9804 2.60308 10.0038 2.55589 10.44 2.12333C10.6971 1.87166 10.9386 1.5964 10.9853 1.51775C11.0632 1.36832 11.0554 1.36832 10.6581 1.50202C9.99598 1.73796 9.9025 1.70651 10.2297 1.3526C10.4712 1.10093 10.7594 0.644774 10.7594 0.511075C10.7594 0.48748 10.6426 0.526804 10.5101 0.597586C10.3699 0.676233 10.0583 0.794203 9.8246 0.864985L9.40393 0.998685L9.02221 0.73915C8.81187 0.597586 8.51585 0.440292 8.36004 0.393104C7.96274 0.282999 7.35511 0.298728 6.99676 0.424563C6.02299 0.778474 5.40756 1.69078 5.47768 2.68959Z" fill="white"/>
</svg>
