<svg width="13" height="10" viewBox="0 0 13 10" fill="none" xmlns="http://www.w3.org/2000/svg">
<path fill-rule="evenodd" clip-rule="evenodd" d="M10.8638 0.945634C11.3749 1.0859 11.7775 1.49919 11.9141 2.02403C12.1624 2.97524 12.1624 4.95995 12.1624 4.95995C12.1624 4.95995 12.1624 6.94458 11.9141 7.89586C11.7775 8.4207 11.3749 8.83399 10.8638 8.97433C9.93744 9.22917 6.22257 9.22917 6.22257 9.22917C6.22257 9.22917 2.5077 9.22917 1.5813 8.97433C1.07014 8.83399 0.66758 8.4207 0.530965 7.89586C0.282776 6.94458 0.282776 4.95995 0.282776 4.95995C0.282776 4.95995 0.282776 2.97524 0.530965 2.02403C0.66758 1.49919 1.07014 1.0859 1.5813 0.945634C2.5077 0.69072 6.22257 0.69072 6.22257 0.69072C6.22257 0.69072 9.93744 0.69072 10.8638 0.945634ZM5.10887 3.28934V7.00171L8.07877 5.1456L5.10887 3.28934Z" fill="white"/>
</svg>
